<?xml version="1.0" standalone="no"?>
<!DOCTYPE svg PUBLIC "-//W3C//DTD SVG 1.0//EN" "http://www.w3.org/TR/2001/REC-SVG-20010904/DTD/svg10.dtd">
<svg xmlns="http://www.w3.org/2000/svg" xmlns:xlink="http://www.w3.org/1999/xlink" id="body_1" width="98" height="80">

<g transform="matrix(0.06635071 0 0 0.06635071 -0 0.31279275)">
	<g transform="matrix(0.1 0 -0 -0.1 0 1201)">
        <path d="M11850 10410C 11606 10372 11500 10210 11500 9877C 11500 9688 11534 9575 11620 9478C 11702 9384 11856 9339 12021 9360C 12293 9394 12421 9610 12389 9978C 12364 10266 12242 10397 11984 10413C 11941 10416 11880 10415 11850 10410zM12101 10354C 12273 10303 12349 10158 12349 9880C 12350 9708 12314 9589 12235 9502C 12107 9359 11783 9359 11655 9502C 11577 9587 11540 9715 11540 9894C 11540 10074 11588 10223 11669 10292C 11762 10372 11950 10399 12101 10354z" stroke="none" fill="#000000" fill-rule="nonzero" />
        <path d="M13885 10410C 13722 10388 13629 10292 13629 10145C 13629 9999 13701 9940 13960 9875C 14120 9835 14189 9803 14234 9747C 14263 9711 14265 9703 14265 9626C 14265 9553 14262 9539 14237 9502C 14169 9399 13961 9364 13727 9417C 13657 9432 13644 9431 13653 9407C 13666 9372 13893 9344 14026 9360C 14126 9373 14166 9386 14223 9426C 14284 9470 14312 9530 14312 9619C 14312 9783 14240 9844 13969 9913C 13810 9954 13751 9980 13711 10026C 13659 10085 13656 10197 13704 10271C 13761 10356 13928 10396 14115 10367C 14170 10359 14223 10349 14233 10345C 14246 10340 14250 10343 14250 10359C 14250 10383 14210 10396 14087 10410C 13995 10421 13971 10421 13885 10410z" stroke="none" fill="#000000" fill-rule="nonzero" />
        <path d="M364 10383C 367 10373 419 10149 480 9885C 541 9621 593 9397 596 9387C 601 9371 614 9370 738 9372L738 9372L874 9375L955 9632C 999 9774 1037 9890 1040 9890C 1043 9890 1079 9773 1120 9630L1120 9630L1195 9370L1332 9370C 1408 9370 1470 9373 1470 9376C 1470 9379 1522 9606 1585 9880C 1648 10153 1700 10382 1700 10389C 1700 10397 1656 10400 1555 10400C 1475 10400 1410 10398 1410 10396C 1410 10391 1305 9928 1294 9885C 1288 9861 1273 9903 1210 10125L1210 10125L1133 10395L1009 10398L884 10401L882 10318C 880 10252 869 10197 828 10053C 799 9952 773 9873 770 9878C 766 9882 739 10001 709 10142L709 10142L655 10400L507 10400C 370 10400 359 10399 364 10383z" stroke="none" fill="#000000" fill-rule="nonzero" />
        <path d="M1820 9885L1820 9370L1970 9370L2120 9370L2120 9560L2120 9750L2295 9750L2470 9750L2470 9560L2470 9370L2620 9370L2770 9370L2770 9885L2770 10400L2620 10400L2470 10400L2470 10210L2470 10020L2295 10020L2120 10020L2120 10210L2120 10400L1970 10400L1820 10400L1820 9885z" stroke="none" fill="#000000" fill-rule="nonzero" />
        <path d="M2920 9885L2920 9370L3070 9370L3220 9370L3220 9885L3220 10400L3070 10400L2920 10400L2920 9885z" stroke="none" fill="#000000" fill-rule="nonzero" />
        <path d="M3300 10290L3300 10180L3445 10180L3590 10180L3590 9775L3590 9370L3740 9370L3890 9370L3890 9775L3890 10180L4035 10180L4180 10180L4180 10290L4180 10400L3740 10400L3300 10400L3300 10290z" stroke="none" fill="#000000" fill-rule="nonzero" />
        <path d="M4260 9885L4260 9370L4650 9370L5040 9370L5040 9485L5040 9600L4800 9600L4560 9600L4560 9685L4560 9770L4770 9770L4980 9770L4980 9885L4980 10000L4770 10000L4560 10000L4560 10085L4560 10170L4800 10170L5040 10170L5040 10285L5040 10400L4650 10400L4260 10400L4260 9885z" stroke="none" fill="#000000" fill-rule="nonzero" />
        <path d="M5520 9885L5520 9370L5845 9370C 6163 9370 6170 9370 6170 9390C 6170 9410 6163 9410 5870 9410L5870 9410L5570 9410L5570 9640L5570 9870L5846 9870C 6103 9870 6121 9871 6118 9888C 6115 9904 6093 9905 5842 9908L5842 9908L5570 9910L5570 10135L5570 10360L5870 10360C 6163 10360 6170 10360 6170 10380C 6170 10400 6163 10400 5845 10400L5845 10400L5520 10400L5520 9885z" stroke="none" fill="#000000" fill-rule="nonzero" />
        <path d="M6485 10139L6662 9877L6643 9851C 6632 9837 6588 9773 6545 9710C 6501 9647 6431 9546 6388 9485C 6318 9387 6312 9375 6331 9372C 6342 9370 6353 9370 6355 9372C 6361 9378 6646 9786 6663 9813C 6673 9828 6684 9840 6688 9840C 6692 9840 6769 9734 6859 9605C 6997 9406 7026 9370 7047 9370L7047 9370L7072 9370L7037 9418C 6930 9567 6720 9871 6720 9878C 6720 9883 6737 9911 6758 9941C 6779 9971 6857 10086 6933 10198C 7055 10377 7068 10400 7047 10400C 7028 10400 6995 10358 6859 10155C 6769 10021 6692 9910 6689 9910C 6686 9910 6610 10020 6520 10155C 6382 10362 6353 10400 6333 10400C 6311 10400 6327 10373 6485 10139z" stroke="none" fill="#000000" fill-rule="nonzero" />
        <path d="M7260 9886L7260 9370L7285 9370L7310 9370L7310 9579L7310 9789L7533 9792C 7754 9795 7755 9795 7813 9823C 7878 9856 7933 9919 7952 9984C 7969 10045 7967 10157 7947 10216C 7923 10285 7872 10342 7808 10371C 7757 10394 7744 10395 7508 10398L7508 10398L7260 10401L7260 9886zM7761 10344C 7799 10333 7827 10316 7856 10285C 7904 10236 7920 10184 7920 10083C 7920 9965 7864 9882 7761 9845C 7727 9834 7670 9830 7514 9830L7514 9830L7310 9830L7310 10095L7310 10360L7508 10360C 7661 10360 7719 10356 7761 10344z" stroke="none" fill="#000000" fill-rule="nonzero" />
        <path d="M8160 9885L8160 9370L8485 9370C 8803 9370 8810 9370 8810 9390C 8810 9410 8803 9410 8505 9410L8505 9410L8200 9410L8200 9640L8200 9870L8475 9870C 8743 9870 8750 9870 8750 9890C 8750 9910 8743 9910 8475 9910L8475 9910L8200 9910L8200 10135L8200 10360L8505 10360C 8803 10360 8810 10360 8810 10380C 8810 10400 8803 10400 8485 10400L8485 10400L8160 10400L8160 9885z" stroke="none" fill="#000000" fill-rule="nonzero" />
        <path d="M9020 9885L9020 9368L9268 9373C 9535 9377 9559 9381 9637 9433C 9733 9497 9778 9618 9787 9835C 9797 10075 9743 10263 9645 10330C 9559 10389 9537 10393 9268 10398L9268 10398L9020 10402L9020 9885zM9547 10337C 9668 10291 9719 10203 9740 10005C 9760 9823 9734 9621 9680 9537C 9615 9433 9537 9410 9258 9410L9258 9410L9060 9410L9060 9886L9060 10362L9283 10358C 9455 10354 9514 10350 9547 10337z" stroke="none" fill="#000000" fill-rule="nonzero" />
        <path d="M10010 9885L10010 9370L10035 9370L10060 9370L10060 9885L10060 10400L10035 10400L10010 10400L10010 9885z" stroke="none" fill="#000000" fill-rule="nonzero" />
        <path d="M10250 10380C 10250 10361 10257 10360 10435 10360L10435 10360L10620 10360L10620 9865L10620 9370L10645 9370L10670 9370L10670 9863L10669 10355L10850 10358C 11022 10360 11030 10361 11030 10380C 11030 10400 11022 10400 10640 10400C 10257 10400 10250 10400 10250 10380z" stroke="none" fill="#000000" fill-rule="nonzero" />
        <path d="M11230 9885C 11230 9377 11230 9370 11250 9370C 11270 9370 11270 9377 11270 9885C 11270 10393 11270 10400 11250 10400C 11230 10400 11230 10393 11230 9885z" stroke="none" fill="#000000" fill-rule="nonzero" />
        <path d="M12620 9885C 12620 9377 12620 9370 12640 9370C 12660 9370 12660 9377 12660 9852C 12660 10232 12663 10331 12672 10322C 12679 10315 12834 10099 13016 9842C 13295 9449 13352 9374 13374 9372L13374 9372L13400 9369L13400 9884C 13400 10393 13400 10400 13380 10400C 13360 10400 13360 10393 13360 9919C 13360 9639 13356 9441 13351 9444C 13346 9447 13190 9664 13005 9925C 12720 10328 12665 10400 12644 10400L12644 10400L12620 10400L12620 9885z" stroke="none" fill="#000000" fill-rule="nonzero" />
        <path d="M700 8971C 711 8949 760 8849 809 8748C 858 8648 953 8453 1020 8315C 1315 7713 1378 7584 1465 7405C 1516 7301 1615 7098 1685 6955C 1755 6812 1854 6610 1905 6505C 1956 6401 2053 6203 2120 6065C 2246 5808 2389 5516 2560 5165C 2698 4883 2855 4561 3015 4235C 3091 4081 3185 3888 3225 3805C 3265 3723 3355 3538 3425 3395C 3495 3252 3599 3041 3655 2925C 3711 2810 3817 2594 3890 2445C 3963 2297 4055 2108 4095 2025C 4135 1943 4225 1758 4295 1615C 4365 1472 4462 1274 4510 1175C 4558 1076 4673 842 4765 655C 4856 468 4964 249 5003 168C 5042 86 5077 20 5081 20C 5084 20 5114 77 5148 148C 5181 218 5293 446 5395 655C 5498 864 5606 1085 5635 1145C 5664 1206 5754 1390 5835 1555C 5916 1720 6024 1941 6075 2045C 6126 2150 6220 2343 6285 2475C 6350 2607 6446 2805 6500 2915C 6554 3025 6649 3221 6713 3350C 7020 3978 7068 4078 7150 4245C 7198 4344 7302 4556 7380 4715C 7458 4875 7557 5077 7600 5165C 7643 5253 7739 5451 7815 5605C 7891 5759 7992 5966 8040 6065C 8088 6164 8182 6355 8247 6490C 8578 7166 8813 7646 8905 7835C 9079 8192 9441 8933 9461 8973L9461 8973L9480 9010L5080 9010L680 9010L700 8971zM2144 7428C 2151 7415 2160 7394 2163 7380C 2169 7357 2174 7355 2222 7355C 2256 7355 2284 7361 2300 7373C 2328 7393 2392 7395 2423 7378C 2443 7366 2442 7365 2400 7360C 2361 7356 2352 7350 2331 7317L2331 7317L2306 7279L2234 7286L2162 7293L2197 7165C 2252 6962 2308 6809 2341 6776L2341 6776L2369 6746L2354 6804C 2313 6963 2288 7161 2308 7174C 2318 7180 2322 7169 2385 6966C 2423 6845 2438 6811 2462 6788C 2483 6768 2495 6745 2501 6713C 2515 6642 2547 6583 2607 6524C 2679 6451 2724 6430 2802 6430C 2872 6430 2886 6436 2904 6471C 2914 6493 2955 6512 3034 6534C 3053 6539 3053 6540 3037 6557C 3027 6569 3021 6593 3022 6628C 3022 6663 3016 6687 3006 6699C 2986 6721 2985 6764 3005 6784C 3023 6802 3078 6796 3133 6770L3133 6770L3171 6752L3185 6781C 3203 6815 3204 6846 3188 6856C 3182 6860 3155 6862 3128 6861C 3068 6859 3057 6865 3070 6891C 3085 6918 3126 6937 3190 6945C 3220 6949 3264 6961 3287 6972C 3339 6998 3404 6993 3448 6960C 3474 6941 3498 6935 3582 6929C 3721 6919 3743 6913 3736 6886C 3733 6875 3730 6860 3730 6854C 3730 6848 3717 6840 3702 6837C 3686 6834 3663 6823 3650 6812L3650 6812L3626 6793L3649 6709C 3673 6621 3704 6558 3739 6526C 3773 6495 3806 6354 3786 6322C 3775 6304 3788 6272 3836 6202C 3891 6122 3900 6088 3900 5969C 3900 5877 3901 5873 3925 5862C 3959 5846 3956 5830 3919 5830C 3902 5830 3890 5827 3892 5823C 3941 5728 3967 5611 3975 5455C 3979 5384 3988 5276 3996 5216C 4004 5155 4010 5099 4009 5091C 4008 5061 3993 5113 3980 5190C 3950 5376 3940 5411 3902 5456C 3842 5528 3843 5532 3875 5290C 3899 5109 3903 5064 3893 5075C 3887 5081 3877 5131 3871 5186C 3856 5311 3805 5569 3792 5582C 3777 5597 3701 5553 3690 5525C 3676 5487 3649 5492 3657 5531C 3663 5562 3651 5580 3622 5580C 3611 5580 3610 5565 3615 5506C 3622 5439 3620 5428 3597 5389C 3583 5365 3573 5338 3575 5330C 3576 5322 3580 5281 3584 5240C 3594 5131 3626 4983 3644 4964C 3653 4956 3660 4942 3660 4934C 3660 4926 3666 4920 3674 4920C 3690 4920 3869 4747 3914 4688C 3930 4667 3948 4650 3955 4650C 3974 4650 4030 4583 4030 4561C 4030 4531 4096 4441 4208 4320C 4272 4250 4310 4200 4310 4187C 4310 4168 4304 4172 4274 4208C 4254 4231 4235 4250 4230 4250C 4222 4250 4244 4118 4255 4100C 4258 4095 4285 4086 4315 4079C 4345 4072 4370 4063 4370 4059C 4370 4046 4246 4036 4242 4049C 4235 4071 4193 4059 4160 4025C 4141 4006 4123 3990 4119 3990C 4114 3990 4105 4002 4098 4017C 4091 4032 4077 4046 4067 4048C 4042 4053 3990 3998 3996 3973C 4001 3956 3997 3954 3972 3958C 3951 3961 3936 3956 3921 3941C 3909 3929 3896 3920 3891 3920C 3876 3920 3833 4020 3800 4131L3800 4131L3770 4235L3807 4267L3845 4299L3813 4327C 3795 4342 3780 4366 3778 4380C 3776 4399 3767 4406 3742 4411C 3723 4415 3692 4432 3672 4449C 3609 4503 3497 4580 3483 4580C 3457 4580 3471 4563 3530 4526C 3563 4505 3611 4467 3637 4442C 3663 4417 3699 4391 3717 4384C 3735 4376 3756 4356 3765 4340C 3774 4323 3785 4310 3790 4310C 3811 4310 3799 4282 3775 4276C 3745 4268 3744 4252 3769 4185C 3784 4146 3789 4102 3792 3997C 3794 3922 3792 3860 3789 3860C 3763 3860 3718 3954 3691 4065C 3666 4168 3666 4167 3581 4240C 3502 4308 3434 4403 3405 4484C 3382 4547 3371 4558 3261 4632C 3216 4662 3193 4693 3175 4748C 3167 4772 3144 4800 3109 4829C 3036 4888 3033 4898 3059 4966C 3086 5037 3085 5049 3055 5090C 3036 5116 3030 5136 3030 5176C 3030 5245 3007 5272 2901 5328C 2857 5352 2813 5381 2805 5393C 2796 5405 2780 5447 2769 5485C 2736 5599 2720 5632 2684 5672C 2654 5706 2650 5716 2650 5768C 2650 5912 2565 6081 2466 6137C 2456 6143 2439 6180 2426 6227C 2413 6271 2393 6321 2381 6338C 2356 6374 2292 6406 2228 6415C 2188 6421 2173 6430 2128 6479C 2059 6551 1986 6655 1972 6700C 1966 6719 1956 6761 1950 6793C 1942 6835 1929 6863 1906 6888C 1827 6978 1825 6993 1876 7140C 1910 7238 1911 7245 1901 7305C 1881 7419 1882 7421 2003 7439C 2109 7454 2128 7452 2144 7428zM3980 7030C 3995 6970 4000 6928 3995 6903C 3992 6882 3986 6839 3983 6808C 3979 6755 3976 6750 3954 6750C 3936 6750 3923 6760 3909 6785C 3897 6804 3881 6820 3872 6820C 3857 6821 3857 6822 3873 6831C 3882 6836 3890 6849 3890 6859C 3890 6869 3901 6885 3915 6894C 3957 6922 3969 7006 3944 7106C 3939 7124 3941 7131 3947 7127C 3953 7123 3968 7080 3980 7030zM3850 6880C 3850 6875 3843 6873 3835 6876C 3827 6880 3820 6884 3820 6886C 3820 6888 3827 6890 3835 6890C 3843 6890 3850 6886 3850 6880z" stroke="none" fill="#000000" fill-rule="nonzero" />
        <path d="M2265 7320C 2262 7315 2263 7310 2269 7310C 2274 7310 2282 7315 2285 7320C 2288 7326 2287 7330 2281 7330C 2276 7330 2268 7326 2265 7320z" stroke="none" fill="#000000" fill-rule="nonzero" />
        <path d="M3416 6857C 3402 6842 3390 6826 3390 6820C 3390 6805 3451 6808 3530 6826C 3637 6850 3631 6861 3503 6876C 3446 6882 3440 6881 3416 6857z" stroke="none" fill="#000000" fill-rule="nonzero" />
        <path d="M3248 6786C 3235 6780 3209 6742 3187 6700C 3166 6659 3131 6597 3109 6563C 3039 6451 3035 6388 3096 6285C 3127 6231 3157 6204 3265 6131L3265 6131L3354 6070L3367 6145C 3374 6186 3387 6237 3395 6256C 3417 6310 3414 6313 3369 6283C 3340 6264 3313 6256 3272 6253C 3215 6249 3215 6249 3240 6267C 3281 6296 3343 6360 3337 6367C 3333 6370 3325 6368 3318 6363C 3286 6338 3228 6327 3188 6339C 3134 6356 3142 6377 3210 6400C 3240 6410 3274 6430 3286 6443C 3314 6476 3334 6576 3335 6690L3335 6690L3335 6784L3303 6791C 3285 6794 3261 6792 3248 6786z" stroke="none" fill="#000000" fill-rule="nonzero" />
        <path d="M3490 6780C 3398 6767 3402 6772 3371 6647L3371 6647L3361 6609L3398 6617C 3446 6627 3533 6627 3594 6616L3594 6616L3643 6607L3636 6649C 3633 6672 3625 6713 3619 6740C 3607 6796 3608 6796 3490 6780z" stroke="none" fill="#000000" fill-rule="nonzero" />
        <path d="M3035 6668C 3039 6628 3046 6587 3052 6577C 3062 6558 3080 6563 3080 6585C 3080 6593 3095 6611 3114 6625C 3150 6652 3185 6698 3177 6707C 3174 6709 3153 6706 3129 6700C 3088 6689 3085 6689 3065 6714C 3054 6728 3041 6740 3036 6740C 3032 6740 3031 6707 3035 6668z" stroke="none" fill="#000000" fill-rule="nonzero" />
        <path d="M2390 6723C 2390 6718 2399 6705 2410 6695C 2421 6685 2430 6681 2430 6687C 2430 6692 2421 6705 2410 6715C 2399 6725 2390 6729 2390 6723z" stroke="none" fill="#000000" fill-rule="nonzero" />
        <path d="M3424 6592C 3384 6567 3350 6522 3356 6505C 3359 6498 3370 6490 3382 6487C 3397 6483 3405 6489 3416 6516C 3442 6577 3522 6595 3585 6554C 3620 6531 3616 6520 3578 6531C 3519 6547 3483 6542 3461 6514C 3422 6464 3430 6458 3551 6445C 3581 6442 3618 6433 3633 6425C 3664 6409 3663 6407 3660 6490C 3658 6560 3648 6577 3602 6589C 3520 6611 3457 6612 3424 6592z" stroke="none" fill="#000000" fill-rule="nonzero" />
        <path d="M2989 6254C 2957 6221 2955 6215 2958 6158C 2960 6104 3014 5803 3023 5794C 3025 5792 3042 5811 3060 5838C 3078 5864 3109 5902 3129 5923C 3169 5965 3157 5973 3112 5935C 3095 5921 3080 5910 3077 5910C 3069 5910 3081 6043 3093 6080C 3106 6122 3104 6156 3083 6233C 3064 6303 3041 6308 2989 6254z" stroke="none" fill="#000000" fill-rule="nonzero" />
        <path d="M3137 6123C 3109 6018 3106 5991 3124 5984C 3149 5974 3168 5997 3176 6047C 3183 6096 3205 6114 3225 6087C 3232 6077 3247 6070 3258 6070C 3281 6070 3296 6049 3301 6010C 3304 5990 3300 5984 3283 5982C 3257 5978 3253 5965 3275 5956C 3284 5953 3290 5938 3290 5918C 3290 5876 3300 5840 3311 5840C 3321 5840 3323 5965 3314 6033C 3307 6081 3310 6078 3179 6163L3179 6163L3153 6180L3137 6123z" stroke="none" fill="#000000" fill-rule="nonzero" />
        <path d="M2730 6131C 2730 6094 2771 5957 2805 5879C 2825 5834 2854 5748 2871 5688C 2907 5552 2920 5522 2962 5466C 2981 5442 3009 5391 3025 5354C 3064 5259 3117 5177 3133 5186C 3139 5190 3153 5200 3163 5208C 3172 5216 3180 5221 3180 5217C 3180 5214 3209 5105 3245 4975C 3333 4653 3353 4610 3417 4610C 3458 4610 3461 4628 3421 4636C 3365 4647 3362 4656 3275 4990C 3244 5108 3212 5229 3203 5258L3203 5258L3188 5311L3163 5295C 3141 5280 3136 5280 3122 5293C 3112 5301 3095 5311 3083 5314C 3037 5328 3004 5501 3024 5623C 3031 5664 3031 5683 3022 5692C 3010 5704 3010 5703 2995 5655C 2993 5647 2981 5640 2969 5640C 2949 5640 2948 5641 2962 5658C 2971 5667 2980 5691 2983 5710C 2986 5729 2992 5759 2996 5777C 3001 5805 2977 5961 2963 5983C 2961 5987 2952 5986 2944 5979C 2924 5962 2918 5973 2930 6004C 2953 6065 2938 6090 2877 6094C 2852 6095 2809 6108 2781 6123C 2735 6146 2730 6147 2730 6131z" stroke="none" fill="#000000" fill-rule="nonzero" />
        <path d="M3176 5919C 3131 5880 3067 5793 3074 5781C 3077 5776 3096 5769 3115 5766C 3191 5751 3280 5821 3280 5896C 3280 5957 3231 5968 3176 5919z" stroke="none" fill="#000000" fill-rule="nonzero" />
        <path d="M3396 5892C 3399 5876 3397 5847 3392 5827C 3380 5784 3377 5785 3473 5806C 3558 5825 3573 5835 3531 5845C 3514 5849 3478 5867 3450 5886C 3423 5905 3398 5920 3395 5920C 3393 5920 3393 5907 3396 5892z" stroke="none" fill="#000000" fill-rule="nonzero" />
        <path d="M3292 5812C 3285 5807 3280 5784 3280 5754C 3281 5727 3280 5696 3278 5685C 3276 5671 3281 5664 3298 5662C 3327 5658 3370 5685 3370 5707C 3370 5721 3368 5721 3351 5706C 3326 5683 3314 5691 3306 5734C 3295 5793 3321 5825 3340 5775C 3350 5749 3370 5741 3370 5763C 3370 5802 3323 5831 3292 5812z" stroke="none" fill="#000000" fill-rule="nonzero" />
        <path d="M3824 5676C 3816 5655 3827 5610 3840 5610C 3853 5610 3853 5677 3840 5685C 3834 5688 3827 5684 3824 5676z" stroke="none" fill="#000000" fill-rule="nonzero" />
        <path d="M3118 5669C 3104 5662 3100 5646 3100 5606C 3100 5553 3080 5506 3066 5529C 3054 5548 3040 5531 3040 5495C 3040 5453 3068 5380 3084 5380C 3090 5380 3113 5392 3135 5405C 3176 5430 3234 5438 3245 5420C 3258 5398 3288 5413 3349 5472C 3412 5534 3412 5534 3406 5579C 3394 5663 3360 5676 3360 5595C 3360 5528 3346 5524 3321 5584C 3301 5629 3286 5640 3243 5640C 3227 5640 3216 5647 3213 5660C 3209 5675 3199 5680 3171 5680C 3151 5680 3127 5675 3118 5669z" stroke="none" fill="#000000" fill-rule="nonzero" />
        <path d="M3513 5153C 3516 5096 3525 5039 3534 5018C 3556 4967 3555 4908 3530 4877C 3510 4852 3510 4852 3531 4847C 3547 4843 3550 4836 3545 4821C 3541 4806 3543 4800 3554 4800C 3562 4800 3574 4792 3579 4782C 3586 4768 3597 4765 3624 4768C 3658 4772 3665 4766 3780 4652C 3846 4586 3900 4525 3900 4517C 3900 4509 3911 4499 3925 4496C 3955 4488 4030 4423 4030 4405C 4030 4397 4021 4389 4011 4385C 3978 4375 3940 4339 3940 4320C 3940 4292 3971 4280 4044 4280C 4112 4280 4140 4286 4140 4301C 4140 4306 4122 4330 4101 4353C 4079 4376 4051 4419 4038 4447C 4021 4486 3983 4528 3885 4622C 3813 4690 3715 4776 3667 4814C 3583 4880 3580 4883 3580 4923C 3580 4979 3553 5162 3539 5211C 3518 5280 3507 5256 3513 5153z" stroke="none" fill="#000000" fill-rule="nonzero" />
        <path d="M4045 4232C 4018 4222 3977 4202 3955 4187C 3933 4172 3900 4150 3882 4139C 3848 4117 3836 4090 3842 4044C 3845 4018 3848 4015 3882 4016C 3902 4017 3937 4027 3959 4039C 3982 4050 4017 4069 4038 4080C 4058 4091 4104 4107 4140 4116C 4218 4135 4234 4147 4224 4184C 4209 4247 4140 4265 4045 4232z" stroke="none" fill="#000000" fill-rule="nonzero" />
        <path d="M9631 8958C 9621 8934 9506 8700 9376 8436C 9246 8173 9140 7956 9140 7955C 9140 7954 9049 7769 8939 7544C 8828 7319 8709 7077 8675 7005C 8640 6934 8535 6718 8440 6525C 8345 6333 8235 6108 8195 6025C 8155 5943 8053 5733 7968 5560C 7545 4699 7470 4543 7470 4528C 7470 4520 7495 4461 7526 4399C 7557 4336 7647 4152 7727 3990C 7806 3828 7933 3570 8008 3417L8008 3417L8144 3138L8260 3372C 8323 3500 8439 3736 8517 3895C 8595 4055 8734 4338 8826 4525C 8917 4712 9030 4942 9075 5035C 9120 5129 9224 5340 9305 5505C 9386 5670 9494 5891 9545 5995C 9596 6100 9701 6313 9777 6470C 9965 6853 10347 7633 10480 7905C 10539 8026 10661 8274 10750 8455C 10931 8824 11010 8987 11010 8995C 11010 8998 10704 9000 10330 9000L10330 9000L9649 9000L9631 8958z" stroke="none" fill="#000000" fill-rule="nonzero" />
        <path d="M11242 8987C 11236 8980 11189 8887 11137 8780C 11085 8673 10929 8353 10790 8070C 10651 7787 10489 7456 10430 7335C 10312 7094 9940 6334 9712 5870C 9633 5708 9524 5485 9470 5375C 9417 5265 9266 4957 9135 4690C 9004 4423 8840 4088 8770 3945C 8700 3802 8557 3509 8451 3294L8451 3294L8260 2903L8426 2564C 8517 2377 8623 2162 8660 2085C 8698 2008 8769 1862 8818 1761L8818 1761L8909 1577L8948 1661C 8970 1707 9065 1903 9160 2095C 9255 2288 9372 2526 9420 2625C 9468 2724 9568 2929 9642 3080C 9717 3231 9880 3564 10005 3820C 10130 4076 10302 4427 10388 4600C 10473 4773 10566 4965 10595 5025C 10624 5086 10743 5328 10859 5564C 10975 5800 11070 5994 11070 5995C 11070 5996 11176 6212 11305 6475C 11434 6737 11540 6953 11540 6955C 11540 6956 11653 7186 11790 7465C 11928 7744 12040 7973 12040 7975C 12040 7976 12133 8166 12246 8396C 12474 8859 12530 8977 12530 8991C 12530 8996 12284 9000 11891 9000C 11389 9000 11250 8997 11242 8987z" stroke="none" fill="#000000" fill-rule="nonzero" />
        <path d="M12595 8648C 12383 8215 11761 6944 11597 6610C 11531 6475 11424 6255 11358 6120C 11292 5985 11189 5776 11130 5655C 11071 5534 10965 5318 10895 5175C 10825 5032 10719 4816 10660 4695C 10523 4416 10330 4021 9713 2760C 9525 2378 9293 1904 9197 1707L9197 1707L9021 1349L9182 1022C 9336 709 9405 566 9593 180L9593 180L9678 5L9788 230C 9848 354 9957 577 10030 725C 10103 874 10211 1094 10270 1215C 10329 1336 10437 1557 10510 1705C 10583 1854 10691 2074 10750 2195C 10809 2316 10912 2526 10979 2662C 11045 2799 11153 3019 11219 3152C 11421 3566 11797 4333 12050 4850C 12183 5122 12344 5450 12406 5578C 12469 5705 12571 5915 12634 6043C 12696 6170 12863 6511 13005 6800C 13147 7089 13293 7388 13330 7465C 13367 7542 13493 7798 13609 8034C 13725 8270 13820 8464 13820 8466C 13820 8468 13876 8583 13945 8722C 14061 8954 14069 8976 14054 8987C 14040 8997 13899 9000 13402 9000L13402 9000L12768 9000L12595 8648z" stroke="none" fill="#000000" fill-rule="nonzero" />
	</g>
</g>
</svg>