<?xml version="1.0" standalone="no"?>
<!DOCTYPE svg PUBLIC "-//W3C//DTD SVG 20010904//EN"
 "http://www.w3.org/TR/2001/REC-SVG-20010904/DTD/svg10.dtd">
<svg version="1.0" xmlns="http://www.w3.org/2000/svg"
 width="1477.000000pt" height="1201.000000pt" viewBox="0 0 1477.000000 1201.000000"
 preserveAspectRatio="xMidYMid meet">

<g transform="translate(0.000000,1201.000000) scale(0.100000,-0.100000)"
fill="#000000" stroke="none">
<path d="M11850 10410 c-244 -38 -350 -200 -350 -533 0 -189 34 -302 120 -399
82 -94 236 -139 401 -118 272 34 400 250 368 618 -25 288 -147 419 -405 435
-43 3 -104 2 -134 -3z m251 -56 c172 -51 248 -196 248 -474 1 -172 -35 -291
-114 -378 -128 -143 -452 -143 -580 0 -78 85 -115 213 -115 392 0 180 48 329
129 398 93 80 281 107 432 62z"/>
<path d="M13885 10410 c-163 -22 -256 -118 -256 -265 0 -146 72 -205 331 -270
160 -40 229 -72 274 -128 29 -36 31 -44 31 -121 0 -73 -3 -87 -28 -124 -68
-103 -276 -138 -510 -85 -70 15 -83 14 -74 -10 13 -35 240 -63 373 -47 100 13
140 26 197 66 61 44 89 104 89 193 0 164 -72 225 -343 294 -159 41 -218 67
-258 113 -52 59 -55 171 -7 245 57 85 224 125 411 96 55 -8 108 -18 118 -22
13 -5 17 -2 17 14 0 24 -40 37 -163 51 -92 11 -116 11 -202 0z"/>
<path d="M364 10383 c3 -10 55 -234 116 -498 61 -264 113 -488 116 -498 5 -16
18 -17 142 -15 l136 3 81 257 c44 142 82 258 85 258 3 0 39 -117 80 -260 l75
-260 137 0 c76 0 138 3 138 6 0 3 52 230 115 504 63 273 115 502 115 509 0 8
-44 11 -145 11 -80 0 -145 -2 -145 -4 0 -5 -105 -468 -116 -511 -6 -24 -21 18
-84 240 l-77 270 -124 3 -125 3 -2 -83 c-2 -66 -13 -121 -54 -265 -29 -101
-55 -180 -58 -175 -4 4 -31 123 -61 264 l-54 258 -148 0 c-137 0 -148 -1 -143
-17z"/>
<path d="M1820 9885 l0 -515 150 0 150 0 0 190 0 190 175 0 175 0 0 -190 0
-190 150 0 150 0 0 515 0 515 -150 0 -150 0 0 -190 0 -190 -175 0 -175 0 0
190 0 190 -150 0 -150 0 0 -515z"/>
<path d="M2920 9885 l0 -515 150 0 150 0 0 515 0 515 -150 0 -150 0 0 -515z"/>
<path d="M3300 10290 l0 -110 145 0 145 0 0 -405 0 -405 150 0 150 0 0 405 0
405 145 0 145 0 0 110 0 110 -440 0 -440 0 0 -110z"/>
<path d="M4260 9885 l0 -515 390 0 390 0 0 115 0 115 -240 0 -240 0 0 85 0 85
210 0 210 0 0 115 0 115 -210 0 -210 0 0 85 0 85 240 0 240 0 0 115 0 115
-390 0 -390 0 0 -515z"/>
<path d="M5520 9885 l0 -515 325 0 c318 0 325 0 325 20 0 20 -7 20 -300 20
l-300 0 0 230 0 230 276 0 c257 0 275 1 272 18 -3 16 -25 17 -276 20 l-272 2
0 225 0 225 300 0 c293 0 300 0 300 20 0 20 -7 20 -325 20 l-325 0 0 -515z"/>
<path d="M6485 10139 l177 -262 -19 -26 c-11 -14 -55 -78 -98 -141 -44 -63
-114 -164 -157 -225 -70 -98 -76 -110 -57 -113 11 -2 22 -2 24 0 6 6 291 414
308 441 10 15 21 27 25 27 4 0 81 -106 171 -235 138 -199 167 -235 188 -235
l25 0 -35 48 c-107 149 -317 453 -317 460 0 5 17 33 38 63 21 30 99 145 175
257 122 179 135 202 114 202 -19 0 -52 -42 -188 -245 -90 -134 -167 -245 -170
-245 -3 0 -79 110 -169 245 -138 207 -167 245 -187 245 -22 0 -6 -27 152 -261z"/>
<path d="M7260 9886 l0 -516 25 0 25 0 0 209 0 210 223 3 c221 3 222 3 280 31
65 33 120 96 139 161 17 61 15 173 -5 232 -24 69 -75 126 -139 155 -51 23 -64
24 -300 27 l-248 3 0 -515z m501 458 c38 -11 66 -28 95 -59 48 -49 64 -101 64
-202 0 -118 -56 -201 -159 -238 -34 -11 -91 -15 -247 -15 l-204 0 0 265 0 265
198 0 c153 0 211 -4 253 -16z"/>
<path d="M8160 9885 l0 -515 325 0 c318 0 325 0 325 20 0 20 -7 20 -305 20
l-305 0 0 230 0 230 275 0 c268 0 275 0 275 20 0 20 -7 20 -275 20 l-275 0 0
225 0 225 305 0 c298 0 305 0 305 20 0 20 -7 20 -325 20 l-325 0 0 -515z"/>
<path d="M9020 9885 l0 -517 248 5 c267 4 291 8 369 60 96 64 141 185 150 402
10 240 -44 428 -142 495 -86 59 -108 63 -377 68 l-248 4 0 -517z m527 452
c121 -46 172 -134 193 -332 20 -182 -6 -384 -60 -468 -65 -104 -143 -127 -422
-127 l-198 0 0 476 0 476 223 -4 c172 -4 231 -8 264 -21z"/>
<path d="M10010 9885 l0 -515 25 0 25 0 0 515 0 515 -25 0 -25 0 0 -515z"/>
<path d="M10250 10380 c0 -19 7 -20 185 -20 l185 0 0 -495 0 -495 25 0 25 0 0
493 -1 492 181 3 c172 2 180 3 180 22 0 20 -8 20 -390 20 -383 0 -390 0 -390
-20z"/>
<path d="M11230 9885 c0 -508 0 -515 20 -515 20 0 20 7 20 515 0 508 0 515
-20 515 -20 0 -20 -7 -20 -515z"/>
<path d="M12620 9885 c0 -508 0 -515 20 -515 20 0 20 7 20 482 0 380 3 479 12
470 7 -7 162 -223 344 -480 279 -393 336 -468 358 -470 l26 -3 0 515 c0 509 0
516 -20 516 -20 0 -20 -7 -20 -481 0 -280 -4 -478 -9 -475 -5 3 -161 220 -346
481 -285 403 -340 475 -361 475 l-24 0 0 -515z"/>
<path d="M700 8971 c11 -22 60 -122 109 -223 49 -100 144 -295 211 -433 295
-602 358 -731 445 -910 51 -104 150 -307 220 -450 70 -143 169 -345 220 -450
51 -104 148 -302 215 -440 126 -257 269 -549 440 -900 138 -282 295 -604 455
-930 76 -154 170 -347 210 -430 40 -82 130 -267 200 -410 70 -143 174 -354
230 -470 56 -115 162 -331 235 -480 73 -148 165 -337 205 -420 40 -82 130
-267 200 -410 70 -143 167 -341 215 -440 48 -99 163 -333 255 -520 91 -187
199 -406 238 -487 39 -82 74 -148 78 -148 3 0 33 57 67 128 33 70 145 298 247
507 103 209 211 430 240 490 29 61 119 245 200 410 81 165 189 386 240 490 51
105 145 298 210 430 65 132 161 330 215 440 54 110 149 306 213 435 307 628
355 728 437 895 48 99 152 311 230 470 78 160 177 362 220 450 43 88 139 286
215 440 76 154 177 361 225 460 48 99 142 290 207 425 331 676 566 1156 658
1345 174 357 536 1098 556 1138 l19 37 -4400 0 -4400 0 20 -39z m1444 -1543
c7 -13 16 -34 19 -48 6 -23 11 -25 59 -25 34 0 62 6 78 18 28 20 92 22 123 5
20 -12 19 -13 -23 -18 -39 -4 -48 -10 -69 -43 l-25 -38 -72 7 -72 7 35 -128
c55 -203 111 -356 144 -389 l28 -30 -15 58 c-41 159 -66 357 -46 370 10 6 14
-5 77 -208 38 -121 53 -155 77 -178 21 -20 33 -43 39 -75 14 -71 46 -130 106
-189 72 -73 117 -94 195 -94 70 0 84 6 102 41 10 22 51 41 130 63 19 5 19 6 3
23 -10 12 -16 36 -15 71 0 35 -6 59 -16 71 -20 22 -21 65 -1 85 18 18 73 12
128 -14 l38 -18 14 29 c18 34 19 65 3 75 -6 4 -33 6 -60 5 -60 -2 -71 4 -58
30 15 27 56 46 120 54 30 4 74 16 97 27 52 26 117 21 161 -12 26 -19 50 -25
134 -31 139 -10 161 -16 154 -43 -3 -11 -6 -26 -6 -32 0 -6 -13 -14 -28 -17
-16 -3 -39 -14 -52 -25 l-24 -19 23 -84 c24 -88 55 -151 90 -183 34 -31 67
-172 47 -204 -11 -18 2 -50 50 -120 55 -80 64 -114 64 -233 0 -92 1 -96 25
-107 34 -16 31 -32 -6 -32 -17 0 -29 -3 -27 -7 49 -95 75 -212 83 -368 4 -71
13 -179 21 -239 8 -61 14 -117 13 -125 -1 -30 -16 22 -29 99 -30 186 -40 221
-78 266 -60 72 -59 76 -27 -166 24 -181 28 -226 18 -215 -6 6 -16 56 -22 111
-15 125 -66 383 -79 396 -15 15 -91 -29 -102 -57 -14 -38 -41 -33 -33 6 6 31
-6 49 -35 49 -11 0 -12 -15 -7 -74 7 -67 5 -78 -18 -117 -14 -24 -24 -51 -22
-59 1 -8 5 -49 9 -90 10 -109 42 -257 60 -276 9 -8 16 -22 16 -30 0 -8 6 -14
14 -14 16 0 195 -173 240 -232 16 -21 34 -38 41 -38 19 0 75 -67 75 -89 0 -30
66 -120 178 -241 64 -70 102 -120 102 -133 0 -19 -6 -15 -36 21 -20 23 -39 42
-44 42 -8 0 14 -132 25 -150 3 -5 30 -14 60 -21 30 -7 55 -16 55 -20 0 -13
-124 -23 -128 -10 -7 22 -49 10 -82 -24 -19 -19 -37 -35 -41 -35 -5 0 -14 12
-21 27 -7 15 -21 29 -31 31 -25 5 -77 -50 -71 -75 5 -17 1 -19 -24 -15 -21 3
-36 -2 -51 -17 -12 -12 -25 -21 -30 -21 -15 0 -58 100 -91 211 l-30 104 37 32
38 32 -32 28 c-18 15 -33 39 -35 53 -2 19 -11 26 -36 31 -19 4 -50 21 -70 38
-63 54 -175 131 -189 131 -26 0 -12 -17 47 -54 33 -21 81 -59 107 -84 26 -25
62 -51 80 -58 18 -8 39 -28 48 -44 9 -17 20 -30 25 -30 21 0 9 -28 -15 -34
-30 -8 -31 -24 -6 -91 15 -39 20 -83 23 -188 2 -75 0 -137 -3 -137 -26 0 -71
94 -98 205 -25 103 -25 102 -110 175 -79 68 -147 163 -176 244 -23 63 -34 74
-144 148 -45 30 -68 61 -86 116 -8 24 -31 52 -66 81 -73 59 -76 69 -50 137 27
71 26 83 -4 124 -19 26 -25 46 -25 86 0 69 -23 96 -129 152 -44 24 -88 53 -96
65 -9 12 -25 54 -36 92 -33 114 -49 147 -85 187 -30 34 -34 44 -34 96 0 144
-85 313 -184 369 -10 6 -27 43 -40 90 -13 44 -33 94 -45 111 -25 36 -89 68
-153 77 -40 6 -55 15 -100 64 -69 72 -142 176 -156 221 -6 19 -16 61 -22 93
-8 42 -21 70 -44 95 -79 90 -81 105 -30 252 34 98 35 105 25 165 -20 114 -19
116 102 134 106 15 125 13 141 -11z m1836 -398 c15 -60 20 -102 15 -127 -3
-21 -9 -64 -12 -95 -4 -53 -7 -58 -29 -58 -18 0 -31 10 -45 35 -12 19 -28 35
-37 35 -15 1 -15 2 1 11 9 5 17 18 17 28 0 10 11 26 25 35 42 28 54 112 29
212 -5 18 -3 25 3 21 6 -4 21 -47 33 -97z m-130 -150 c0 -5 -7 -7 -15 -4 -8 4
-15 8 -15 10 0 2 7 4 15 4 8 0 15 -4 15 -10z"/>
<path d="M2265 7320 c-3 -5 -2 -10 4 -10 5 0 13 5 16 10 3 6 2 10 -4 10 -5 0
-13 -4 -16 -10z"/>
<path d="M3416 6857 c-14 -15 -26 -31 -26 -37 0 -15 61 -12 140 6 107 24 101
35 -27 50 -57 6 -63 5 -87 -19z"/>
<path d="M3248 6786 c-13 -6 -39 -44 -61 -86 -21 -41 -56 -103 -78 -137 -70
-112 -74 -175 -13 -278 31 -54 61 -81 169 -154 l89 -61 13 75 c7 41 20 92 28
111 22 54 19 57 -26 27 -29 -19 -56 -27 -97 -30 -57 -4 -57 -4 -32 14 41 29
103 93 97 100 -4 3 -12 1 -19 -4 -32 -25 -90 -36 -130 -24 -54 17 -46 38 22
61 30 10 64 30 76 43 28 33 48 133 49 247 l0 94 -32 7 c-18 3 -42 1 -55 -5z"/>
<path d="M3490 6780 c-92 -13 -88 -8 -119 -133 l-10 -38 37 8 c48 10 135 10
196 -1 l49 -9 -7 42 c-3 23 -11 64 -17 91 -12 56 -11 56 -129 40z"/>
<path d="M3035 6668 c4 -40 11 -81 17 -91 10 -19 28 -14 28 8 0 8 15 26 34 40
36 27 71 73 63 82 -3 2 -24 -1 -48 -7 -41 -11 -44 -11 -64 14 -11 14 -24 26
-29 26 -4 0 -5 -33 -1 -72z"/>
<path d="M2390 6723 c0 -5 9 -18 20 -28 11 -10 20 -14 20 -8 0 5 -9 18 -20 28
-11 10 -20 14 -20 8z"/>
<path d="M3424 6592 c-40 -25 -74 -70 -68 -87 3 -7 14 -15 26 -18 15 -4 23 2
34 29 26 61 106 79 169 38 35 -23 31 -34 -7 -23 -59 16 -95 11 -117 -17 -39
-50 -31 -56 90 -69 30 -3 67 -12 82 -20 31 -16 30 -18 27 65 -2 70 -12 87 -58
99 -82 22 -145 23 -178 3z"/>
<path d="M2989 6254 c-32 -33 -34 -39 -31 -96 2 -54 56 -355 65 -364 2 -2 19
17 37 44 18 26 49 64 69 85 40 42 28 50 -17 12 -17 -14 -32 -25 -35 -25 -8 0
4 133 16 170 13 42 11 76 -10 153 -19 70 -42 75 -94 21z"/>
<path d="M3137 6123 c-28 -105 -31 -132 -13 -139 25 -10 44 13 52 63 7 49 29
67 49 40 7 -10 22 -17 33 -17 23 0 38 -21 43 -60 3 -20 -1 -26 -18 -28 -26 -4
-30 -17 -8 -26 9 -3 15 -18 15 -38 0 -42 10 -78 21 -78 10 0 12 125 3 193 -7
48 -4 45 -135 130 l-26 17 -16 -57z"/>
<path d="M2730 6131 c0 -37 41 -174 75 -252 20 -45 49 -131 66 -191 36 -136
49 -166 91 -222 19 -24 47 -75 63 -112 39 -95 92 -177 108 -168 6 4 20 14 30
22 9 8 17 13 17 9 0 -3 29 -112 65 -242 88 -322 108 -365 172 -365 41 0 44 18
4 26 -56 11 -59 20 -146 354 -31 118 -63 239 -72 268 l-15 53 -25 -16 c-22
-15 -27 -15 -41 -2 -10 8 -27 18 -39 21 -46 14 -79 187 -59 309 7 41 7 60 -2
69 -12 12 -12 11 -27 -37 -2 -8 -14 -15 -26 -15 -20 0 -21 1 -7 18 9 9 18 33
21 52 3 19 9 49 13 67 5 28 -19 184 -33 206 -2 4 -11 3 -19 -4 -20 -17 -26 -6
-14 25 23 61 8 86 -53 90 -25 1 -68 14 -96 29 -46 23 -51 24 -51 8z"/>
<path d="M3176 5919 c-45 -39 -109 -126 -102 -138 3 -5 22 -12 41 -15 76 -15
165 55 165 130 0 61 -49 72 -104 23z"/>
<path d="M3396 5892 c3 -16 1 -45 -4 -65 -12 -43 -15 -42 81 -21 85 19 100 29
58 39 -17 4 -53 22 -81 41 -27 19 -52 34 -55 34 -2 0 -2 -13 1 -28z"/>
<path d="M3292 5812 c-7 -5 -12 -28 -12 -58 1 -27 0 -58 -2 -69 -2 -14 3 -21
20 -23 29 -4 72 23 72 45 0 14 -2 14 -19 -1 -25 -23 -37 -15 -45 28 -11 59 15
91 34 41 10 -26 30 -34 30 -12 0 39 -47 68 -78 49z"/>
<path d="M3824 5676 c-8 -21 3 -66 16 -66 13 0 13 67 0 75 -6 3 -13 -1 -16 -9z"/>
<path d="M3118 5669 c-14 -7 -18 -23 -18 -63 0 -53 -20 -100 -34 -77 -12 19
-26 2 -26 -34 0 -42 28 -115 44 -115 6 0 29 12 51 25 41 25 99 33 110 15 13
-22 43 -7 104 52 63 62 63 62 57 107 -12 84 -46 97 -46 16 0 -67 -14 -71 -39
-11 -20 45 -35 56 -78 56 -16 0 -27 7 -30 20 -4 15 -14 20 -42 20 -20 0 -44
-5 -53 -11z"/>
<path d="M3513 5153 c3 -57 12 -114 21 -135 22 -51 21 -110 -4 -141 -20 -25
-20 -25 1 -30 16 -4 19 -11 14 -26 -4 -15 -2 -21 9 -21 8 0 20 -8 25 -18 7
-14 18 -17 45 -14 34 4 41 -2 156 -116 66 -66 120 -127 120 -135 0 -8 11 -18
25 -21 30 -8 105 -73 105 -91 0 -8 -9 -16 -19 -20 -33 -10 -71 -46 -71 -65 0
-28 31 -40 104 -40 68 0 96 6 96 21 0 5 -18 29 -39 52 -22 23 -50 66 -63 94
-17 39 -55 81 -153 175 -72 68 -170 154 -218 192 -84 66 -87 69 -87 109 0 56
-27 239 -41 288 -21 69 -32 45 -26 -58z"/>
<path d="M4045 4232 c-27 -10 -68 -30 -90 -45 -22 -15 -55 -37 -73 -48 -34
-22 -46 -49 -40 -95 3 -26 6 -29 40 -28 20 1 55 11 77 23 23 11 58 30 79 41
20 11 66 27 102 36 78 19 94 31 84 68 -15 63 -84 81 -179 48z"/>
<path d="M9631 8958 c-10 -24 -125 -258 -255 -522 -130 -263 -236 -480 -236
-481 0 -1 -91 -186 -201 -411 -111 -225 -230 -467 -264 -539 -35 -71 -140
-287 -235 -480 -95 -192 -205 -417 -245 -500 -40 -82 -142 -292 -227 -465
-423 -861 -498 -1017 -498 -1032 0 -8 25 -67 56 -129 31 -63 121 -247 201
-409 79 -162 206 -420 281 -573 l136 -279 116 234 c63 128 179 364 257 523 78
160 217 443 309 630 91 187 204 417 249 510 45 94 149 305 230 470 81 165 189
386 240 490 51 105 156 318 232 475 188 383 570 1163 703 1435 59 121 181 369
270 550 181 369 260 532 260 540 0 3 -306 5 -680 5 l-681 0 -18 -42z"/>
<path d="M11242 8987 c-6 -7 -53 -100 -105 -207 -52 -107 -208 -427 -347 -710
-139 -283 -301 -614 -360 -735 -118 -241 -490 -1001 -718 -1465 -79 -162 -188
-385 -242 -495 -53 -110 -204 -418 -335 -685 -131 -267 -295 -602 -365 -745
-70 -143 -213 -436 -319 -651 l-191 -391 166 -339 c91 -187 197 -402 234 -479
38 -77 109 -223 158 -324 l91 -184 39 84 c22 46 117 242 212 434 95 193 212
431 260 530 48 99 148 304 222 455 75 151 238 484 363 740 125 256 297 607
383 780 85 173 178 365 207 425 29 61 148 303 264 539 116 236 211 430 211
431 0 1 106 217 235 480 129 262 235 478 235 480 0 1 113 231 250 510 138 279
250 508 250 510 0 1 93 191 206 421 228 463 284 581 284 595 0 5 -246 9 -639
9 -502 0 -641 -3 -649 -13z"/>
<path d="M12595 8648 c-212 -433 -834 -1704 -998 -2038 -66 -135 -173 -355
-239 -490 -66 -135 -169 -344 -228 -465 -59 -121 -165 -337 -235 -480 -70
-143 -176 -359 -235 -480 -137 -279 -330 -674 -947 -1935 -188 -382 -420 -856
-516 -1053 l-176 -358 161 -327 c154 -313 223 -456 411 -842 l85 -175 110 225
c60 124 169 347 242 495 73 149 181 369 240 490 59 121 167 342 240 490 73
149 181 369 240 490 59 121 162 331 229 467 66 137 174 357 240 490 202 414
578 1181 831 1698 133 272 294 600 356 728 63 127 165 337 228 465 62 127 229
468 371 757 142 289 288 588 325 665 37 77 163 333 279 569 116 236 211 430
211 432 0 2 56 117 125 256 116 232 124 254 109 265 -14 10 -155 13 -652 13
l-634 0 -173 -352z"/>
</g>
</svg>
